HIERARCHY
ROOT Hips
{
	OFFSET	0.00	0.00	0.00
	CHANNELS 6 Xposition Yposition Zposition Zrotation Xrotation Yrotation
	JOINT LeftUpLeg
	{
		OFFSET	 0.126116	-0.014019	-0.065224
		CHANNELS 3 Zrotation Xrotation Yrotation
		JOINT LeftLeg
		{
			OFFSET	 0.000000	 0.000000	 0.569914
			CHANNELS 3 Zrotation Xrotation Yrotation
			JOINT LeftFoot
			{
				OFFSET	 0.000000	 0.000000	 0.544423
				CHANNELS 3 Zrotation Xrotation Yrotation
				JOINT LeftToeBase
				{
					OFFSET	 0.000000	 0.000000	 0.207117
					CHANNELS 3 Zrotation Xrotation Yrotation
					End Site
					{
						OFFSET	 0.000000	 0.000000	 0.207117
					}
				}
			}
		}
	}
	JOINT RightUpLeg
	{
		OFFSET	-0.124023	-0.008373	-0.065224
		CHANNELS 3 Zrotation Xrotation Yrotation
		JOINT RightLeg
		{
			OFFSET	 0.000000	 0.000000	 0.570047
			CHANNELS 3 Zrotation Xrotation Yrotation
			JOINT RightFoot
			{
				OFFSET	 0.000000	 0.000000	 0.544354
				CHANNELS 3 Zrotation Xrotation Yrotation
				JOINT RightToeBase
				{
					OFFSET	 0.000000	 0.000000	 0.207540
					CHANNELS 3 Zrotation Xrotation Yrotation
					End Site
					{
						OFFSET	 0.000000	 0.000000	 0.207540
					}
				}
			}
		}
	}
	JOINT Spine
	{
		OFFSET	 0.000184	-0.007763	 0.117403
		CHANNELS 3 Zrotation Xrotation Yrotation
		JOINT Spine1
		{
			OFFSET	 0.000000	 0.000000	 0.137269
			CHANNELS 3 Zrotation Xrotation Yrotation
			JOINT Spine2
			{
				OFFSET	 0.000000	 0.000000	 0.156879
				CHANNELS 3 Zrotation Xrotation Yrotation
				JOINT LeftShoulder
				{
					OFFSET	 0.080501	-0.002496	 0.160144
					CHANNELS 3 Zrotation Xrotation Yrotation
					JOINT LeftArm
					{
						OFFSET	 0.000000	 0.000000	 0.164363
						CHANNELS 3 Zrotation Xrotation Yrotation
						JOINT LeftForeArm
						{
							OFFSET	 0.000000	 0.000000	 0.364576
							CHANNELS 3 Zrotation Xrotation Yrotation
							JOINT LeftHand
							{
								OFFSET	 0.000000	 0.000000	 0.360812
								CHANNELS 3 Zrotation Xrotation Yrotation
								JOINT LeftHandIndex1
								{
									OFFSET	 0.000000	 0.000000	 0.086006
									CHANNELS 3 Zrotation Xrotation Yrotation
									JOINT LeftHandIndex2
									{
										OFFSET	 0.000000	 0.000000	 0.047237
										CHANNELS 3 Zrotation Xrotation Yrotation
										JOINT LeftHandIndex3
										{
											OFFSET	-0.004284	-0.000551	 0.038165
											CHANNELS 3 Zrotation Xrotation Yrotation
											End Site
											{
												OFFSET	-0.004284	-0.000551	 0.038165
											}
										}
									}
								}
							}
						}
					}
				}
				JOINT Neck
				{
					OFFSET	 0.000000	 0.000000	 0.176489
					CHANNELS 3 Zrotation Xrotation Yrotation
					JOINT Head
					{
						OFFSET	 0.000000	-0.001747	 0.077940
						CHANNELS 3 Zrotation Xrotation Yrotation
						End Site
						{
							OFFSET	 0.000000	-0.001747	 0.077940
						}
					}
				}
				JOINT RightShoulder
				{
					OFFSET	-0.080363	 0.000306	 0.159706
					CHANNELS 3 Zrotation Xrotation Yrotation
					JOINT RightArm
					{
						OFFSET	 0.000000	 0.000000	 0.164196
						CHANNELS 3 Zrotation Xrotation Yrotation
						JOINT RightForeArm
						{
							OFFSET	 0.000000	 0.000000	 0.365611
							CHANNELS 3 Zrotation Xrotation Yrotation
							JOINT RightHand
							{
								OFFSET	 0.000000	 0.000000	 0.360648
								CHANNELS 3 Zrotation Xrotation Yrotation
								JOINT RightHandIndex1
								{
									OFFSET	 0.000000	 0.000000	 0.069977
									CHANNELS 3 Zrotation Xrotation Yrotation
									JOINT RightHandIndex2
									{
										OFFSET	 0.000000	 0.000000	 0.052305
										CHANNELS 3 Zrotation Xrotation Yrotation
										JOINT RightHandIndex3
										{
											OFFSET	 0.009002	-0.000782	 0.042196
											CHANNELS 3 Zrotation Xrotation Yrotation
											End Site
											{
												OFFSET	 0.009002	-0.000782	 0.042196
											}
										}
									}
								}
							}
						}
					}
				}
			}
		}
	}
}
MOTION
Frames:    13
Frame Time: 0.03333334
-0.047776	-0.294732	 1.168560	 178.482100	 2.463840	 3.204521	-8.843418	-36.231530	 172.616500	-7.747962	-68.879080	-6.970691	 118.452400	 81.910680	-116.777400	-2.324061	 37.507620	-0.210727	 21.427350	-34.960450	 177.804900	 3.392030	-71.338270	 3.856203	-169.556500	 84.756680	 176.944200	 2.403960	 21.975290	-0.133607	 4.196183	 8.164536	-3.230480	-0.924076	 9.842212	-14.939760	-7.426454	-6.406514	 15.011100	-96.856290	 86.735650	-170.910100	 48.655490	 61.296500	-72.898470	-15.407560	 2.733829	-31.314750	-8.610447	-15.050670	-5.921064	-6.639595	-19.156050	-2.906906	-5.213519	-0.193819	 3.566523	-1.378229	 35.397820	-2.634230	 1.692713	 1.324251	-0.365856	-1.875120	 15.684110	 3.627183	 104.097200	 88.274890	 160.879600	-73.422040	 68.908770	 94.000970	 2.487862	-5.563298	 25.650260	-20.249320	-37.320850	-4.416239	-9.559550	-10.129220	-38.028190	 5.070817	-0.697411	-9.399697	-2.350882	 35.473990	 5.254307
-0.047782	-0.294797	 1.168773	 178.516900	 2.666240	 3.184139	-8.855885	-36.444600	 172.601900	-7.624018	-68.849560	-6.853469	 118.808600	 82.012940	-117.086100	-2.326554	 37.243960	-0.204073	 21.607910	-35.132430	 177.919200	 3.476492	-71.297450	 3.935322	-170.042900	 84.628040	 177.397800	 2.404348	 21.734780	-0.138444	 4.152588	 8.131159	-3.157512	-0.943034	 9.528608	-14.995360	-7.448272	-6.278679	 15.014310	-96.856060	 86.735710	-170.910300	 48.655760	 61.351480	-72.939240	-15.338250	 2.691296	-31.135780	-8.627049	-15.073200	-5.915567	-6.631072	-19.144170	-2.890334	-5.213519	-0.193819	 3.566523	-1.378229	 35.397820	-2.634230	 1.728759	 1.315539	-0.371780	-1.855171	 15.641710	 3.699432	 104.097700	 88.274890	 160.879100	-73.503620	 68.960660	 93.947280	 2.443065	-5.642897	 25.806800	-20.412960	-37.048390	-4.616292	-9.551455	-10.127640	-38.010810	 5.070817	-0.697411	-9.399697	-2.350882	 35.473990	 5.254307
-0.047777	-0.294846	 1.168920	 178.549000	 2.852664	 3.165316	-8.870588	-36.643620	 172.587600	-7.514122	-68.829630	-6.749866	 119.112700	 82.109470	-117.346800	-2.328768	 37.004730	-0.198064	 21.772830	-35.295540	 178.025600	 3.554729	-71.269960	 4.008816	-170.491900	 84.509490	 177.816300	 2.404685	 21.516560	-0.142838	 4.114653	 8.097524	-3.088578	-0.958852	 9.228065	-15.044730	-7.470383	-6.152893	 15.016890	-96.855840	 86.735650	-170.910500	 48.670060	 61.398370	-72.979350	-15.273480	 2.653766	-30.995270	-8.638811	-15.091610	-5.910447	-6.623271	-19.130430	-2.875429	-5.213519	-0.193819	 3.566523	-1.378229	 35.397820	-2.634230	 1.761475	 1.307617	-0.377147	-1.836509	 15.604490	 3.764941	 104.098100	 88.274890	 160.878700	-73.572900	 69.010330	 93.901840	 2.402706	-5.709123	 25.933220	-20.557460	-36.802830	-4.801253	-9.544124	-10.125620	-37.995530	 5.070817	-0.697411	-9.399697	-2.350882	 35.473990	 5.254307
-0.047749	-0.294906	 1.169064	 178.606100	 3.147191	 3.129587	-8.902623	-36.963490	 172.570700	-7.338978	-68.808120	-6.585260	 119.622300	 82.260460	-117.789800	-2.332000	 36.649280	-0.189201	 22.019250	-35.558760	 178.201400	 3.690973	-71.246510	 4.137344	-171.193900	 84.289860	 178.469200	 2.405104	 21.226110	-0.148660	 4.054001	 8.046274	-2.969291	-0.983698	 8.720668	-15.117720	-7.510669	-5.933471	 15.016110	-96.856110	 86.735710	-170.910200	 48.717790	 61.465170	-73.049370	-15.166660	 2.595871	-30.814490	-8.649916	-15.116910	-5.901984	-6.607539	-19.102960	-2.845297	-5.213519	-0.193819	 3.566523	-1.378229	 35.397820	-2.634230	 1.814067	 1.294809	-0.389175	-1.807291	 15.547620	 3.872815	 104.097200	 88.275120	 160.879500	-73.674110	 69.093380	 93.836720	 2.341907	-5.803566	 26.108300	-20.773740	-36.413270	-5.100244	-9.532617	-10.121250	-37.972270	 5.070817	-0.697411	-9.399697	-2.350882	 35.473990	 5.254307
-0.047733	-0.294920	 1.169089	 178.629000	 3.256305	 3.114992	-8.917162	-37.083570	 172.565500	-7.275217	-68.803560	-6.525496	 119.810100	 82.315740	-117.953300	-2.333109	 36.524680	-0.186106	 22.106500	-35.658050	 178.268200	 3.743726	-71.243800	 4.187268	-171.447900	 84.203770	 178.705600	 2.405236	 21.132020	-0.150544	 4.031782	 8.024649	-2.922830	-0.992863	 8.526896	-15.143000	-7.526969	-5.846964	 15.014810	-96.855850	 86.735770	-170.910500	 48.743150	 61.487150	-73.077210	-15.126560	 2.575251	-30.760480	-8.651410	-15.124860	-5.898762	-6.601071	-19.091280	-2.832935	-5.213519	-0.193819	 3.566523	-1.378229	 35.397820	-2.634230	 1.833408	 1.290070	-0.394313	-1.796676	 15.527450	 3.913026	 104.097300	 88.275120	 160.879500	-73.707910	 69.124210	 93.814410	 2.321027	-5.834478	 26.164020	-20.847330	-36.272390	-5.209214	-9.528440	-10.119290	-37.964080	 5.070817	-0.697411	-9.399697	-2.350882	 35.473990	 5.254307
-0.047692	-0.294942	 1.169097	 178.673300	 3.467784	 3.086417	-8.948782	-37.318740	 172.554800	-7.152879	-68.800550	-6.411078	 120.163300	 82.427960	-118.258200	-2.335259	 36.281600	-0.180083	 22.276370	-35.854390	 178.399200	 3.848430	-71.246890	 4.286551	-171.934600	 84.037830	 179.156700	 2.405475	 20.948510	-0.154214	 3.990042	 7.986915	-2.831641	-1.009516	 8.131549	-15.188880	-7.560863	-5.669291	 15.011290	-96.856030	 86.735710	-170.910400	 48.805190	 61.526220	-73.132740	-15.047030	 2.535976	-30.678360	-8.649767	-15.138370	-5.892519	-6.588397	-19.065970	-2.808918	-5.213519	-0.193819	 3.566523	-1.378229	 35.397820	-2.634230	 1.871148	 1.280831	-0.404339	-1.775758	 15.488830	 3.991544	 104.097200	 88.275120	 160.879500	-73.770390	 69.185460	 93.774730	 2.283083	-5.889012	 26.260460	-20.983790	-36.000390	-5.420423	-9.520349	-10.114980	-37.948540	 5.070817	-0.697411	-9.399697	-2.350882	 35.473990	 5.254307
-0.047655	-0.294968	 1.169119	 178.719400	 3.674747	 3.052215	-8.980968	-37.547170	 172.552300	-7.030503	-68.791760	-6.296406	 120.486100	 82.536420	-118.535500	-2.337119	 36.065970	-0.174787	 22.437810	-36.042870	 178.535600	 3.945037	-71.249910	 4.378161	-172.376400	 83.872090	 179.566700	 2.405647	 20.818010	-0.156823	 3.946814	 7.950643	-2.739743	-1.029008	 7.749902	-15.226070	-7.593705	-5.499261	 15.002040	-96.855940	 86.735770	-170.910400	 48.862980	 61.559880	-73.187100	-14.982380	 2.502961	-30.588440	-8.658420	-15.149810	-5.887416	-6.575384	-19.038240	-2.784370	-5.213519	-0.193819	 3.566523	-1.378229	 35.397820	-2.634230	 1.908102	 1.271639	-0.406562	-1.754586	 15.451730	 4.072667	 104.097900	 88.275240	 160.878900	-73.835460	 69.246620	 93.735970	 2.252586	-5.942204	 26.360660	-21.104250	-35.737280	-5.617188	-9.512506	-10.110180	-37.933930	 5.070817	-0.697411	-9.399697	-2.350882	 35.473990	 5.254307
-0.047645	-0.295020	 1.169266	 178.763600	 3.886057	 3.018794	-9.016070	-37.771270	 172.549500	-6.903199	-68.764450	-6.176381	 120.733900	 82.654360	-118.737000	-2.338945	 35.851390	-0.169525	 22.600820	-36.223190	 178.675900	 4.035274	-71.227970	 4.463094	-172.780700	 83.730430	 179.937000	 2.405800	 20.688400	-0.159409	 3.898755	 7.914383	-2.658472	-1.054554	 7.398242	-15.259600	-7.621245	-5.346840	 14.991210	-96.855920	 86.735830	-170.910500	 48.887200	 61.588830	-73.238200	-14.922240	 2.468304	-30.432510	-8.665139	-15.160710	-5.882542	-6.562377	-19.007740	-2.760044	-5.213519	-0.193819	 3.566523	-1.378229	 35.397820	-2.634230	 1.944930	 1.262512	-0.408727	-1.733428	 15.415430	 4.153548	 104.097600	 88.275120	 160.879200	-73.914470	 69.310200	 93.690820	 2.233706	-6.005878	 26.497780	-21.221400	-35.471780	-5.799415	-9.504766	-10.104750	-37.919930	 5.070817	-0.697411	-9.399697	-2.350882	 35.473990	 5.254307
-0.047662	-0.295095	 1.169522	 178.804400	 4.090147	 2.984352	-9.048148	-37.979200	 172.551400	-6.777788	-68.719220	-6.057428	 120.882200	 82.773030	-118.841500	-2.340624	 35.651870	-0.164652	 22.762210	-36.385310	 178.816600	 4.106120	-71.185420	 4.529078	-173.151400	 83.615210	-179.724100	 2.405925	 20.581690	-0.161535	 3.848079	 7.880884	-2.587588	-1.084970	 7.093898	-15.287770	-7.642293	-5.219720	 14.978790	-96.855870	 86.735770	-170.910500	 48.876450	 61.612510	-73.280890	-14.875590	 2.437047	-30.223360	-8.678945	-15.170900	-5.878647	-6.550109	-18.976060	-2.737333	-5.213519	-0.193819	 3.566523	-1.378229	 35.397820	-2.634230	 1.979865	 1.253567	-0.409155	-1.712966	 15.381260	 4.231493	 104.097600	 88.275120	 160.879200	-73.980950	 69.374670	 93.619050	 2.177764	-6.075457	 26.661660	-21.284720	-35.221910	-5.966851	-9.497549	-10.098940	-37.907420	 5.070817	-0.697411	-9.399697	-2.350882	 35.473990	 5.254307
-0.047709	-0.295207	 1.169927	 178.845900	 4.313151	 2.944512	-9.078461	-38.197540	 172.558800	-6.638679	-68.649670	-5.924807	 120.938900	 82.904440	-118.853900	-2.342353	 35.441960	-0.159554	 22.942890	-36.550070	 178.976000	 4.165957	-71.116260	 4.583879	-173.534400	 83.514180	-179.375300	 2.406030	 20.485160	-0.163458	 3.788739	 7.844811	-2.517929	-1.123624	 6.800688	-15.315050	-7.658990	-5.102840	 14.963710	-96.855810	 86.735770	-170.910600	 48.827690	 61.632610	-73.321330	-14.837360	 2.405155	-29.929820	-8.701935	-15.181630	-5.875360	-6.537013	-18.939160	-2.713323	-5.213519	-0.193819	 3.566523	-1.378229	 35.397820	-2.634230	 2.017440	 1.243651	-0.407783	-1.690687	 15.344730	 4.316575	 104.097600	 88.275010	 160.879200	-74.109950	 69.443890	 93.584400	 2.228359	-6.158813	 26.871750	-21.431120	-34.941650	-6.112117	-9.490779	-10.091370	-37.897080	 5.070817	-0.697411	-9.399697	-2.350882	 35.473990	 5.254307
-0.047785	-0.295345	 1.170454	 178.885500	 4.536733	 2.905948	-9.107419	-38.408360	 172.566400	-6.497598	-68.562540	-5.789778	 120.909100	 83.038210	-118.781800	-2.344028	 35.235980	-0.154570	 23.122940	-36.703500	 179.137100	 4.217320	-71.022740	 4.629934	-173.887400	 83.443780	-179.057500	 2.406137	 20.390860	-0.165337	 3.724756	 7.805156	-2.459454	-1.167986	 6.552088	-15.341080	-7.668663	-5.010176	 14.948610	-96.856120	 86.735770	-170.910300	 48.741830	 61.647140	-73.354450	-14.803930	 2.372450	-29.572610	-8.724168	-15.192140	-5.872322	-6.524086	-18.900220	-2.689784	-5.213519	-0.193819	 3.566523	-1.378229	 35.397820	-2.634230	 2.054336	 1.233906	-0.406327	-1.668833	 15.308950	 4.400271	 104.097500	 88.275120	 160.879300	-74.248120	 69.514790	 93.543690	 2.292038	-6.248148	 27.110550	-21.566500	-34.667810	-6.234674	-9.485222	-10.082520	-37.890340	 5.070817	-0.697411	-9.399697	-2.350882	 35.473990	 5.254307
-0.047879	-0.295497	 1.171042	 178.915700	 4.739377	 2.867004	-9.121754	-38.591340	 172.581600	-6.371598	-68.464910	-5.668538	 120.729100	 83.161550	-118.567300	-2.345458	 35.057510	-0.150261	 23.306410	-36.832160	 179.292000	 4.227904	-70.920080	 4.637098	-174.217800	 83.396810	-178.753100	 2.406206	 20.325870	-0.166626	 3.665105	 7.770937	-2.410181	-1.211847	 6.359392	-15.363430	-7.671616	-4.945270	 14.935430	-96.855870	 86.735770	-170.910500	 48.628530	 61.655840	-73.375570	-14.792540	 2.348041	-29.191960	-8.761570	-15.201670	-5.871140	-6.510450	-18.862660	-2.664656	-5.213519	-0.193819	 3.566523	-1.378229	 35.397820	-2.634230	 2.087085	 1.224461	-0.401590	-1.648463	 15.276700	 4.475658	 104.097500	 88.275120	 160.879300	-74.382100	 69.580990	 93.503670	 2.355426	-6.334731	 27.347110	-21.688030	-34.420350	-6.331013	-9.481046	-10.073360	-37.886950	 5.070817	-0.697411	-9.399697	-2.350882	 35.473990	 5.254307
-0.048096	-0.295815	 1.172284	 178.963800	 5.086143	 2.802273	-9.142833	-38.889620	 172.609400	-6.151048	-68.265210	-5.455575	 120.272800	 83.377890	-118.055200	-2.347845	 34.753620	-0.142967	 23.620480	-37.030680	 179.560700	 4.235080	-70.699970	 4.637708	-174.733300	 83.376730	-178.285600	 2.406325	 20.215280	-0.168829	 3.554140	 7.713645	-2.344200	-1.296547	 6.104491	-15.403950	-7.663378	-4.877834	 14.913900	-96.855960	 86.735770	-170.910400	 48.360700	 61.661480	-73.400590	-14.779880	 2.303093	-28.409260	-8.825459	-15.218360	-5.869306	-6.487157	-18.794000	-2.622021	-5.213519	-0.193819	 3.566523	-1.378229	 35.397820	-2.634230	 2.142848	 1.208405	-0.393472	-1.614127	 15.221280	 4.604356	 104.097400	 88.274890	 160.879400	-74.547770	 69.703820	 93.339440	 2.315162	-6.499640	 27.792260	-21.779340	-34.009850	-6.498808	-9.475739	-10.055500	-37.886830	 5.070817	-0.697411	-9.399697	-2.350882	 35.473990	 5.254307
